<svg xmlns="http://www.w3.org/2000/svg" xmlns:xlink="http://www.w3.org/1999/xlink" viewBox="0 0 119.28 167.6"><defs><style>.cls-1,.cls-4,.cls-8,.cls-9{fill:none;}.cls-12,.cls-15,.cls-2{fill:#fff;}.cls-15,.cls-16,.cls-17,.cls-2,.cls-3,.cls-4,.cls-9{stroke:#302b5f;}.cls-16,.cls-17,.cls-2,.cls-8,.cls-9{stroke-miterlimit:10;}.cls-2{stroke-width:4px;}.cls-3,.cls-7{fill:#5af9c4;}.cls-15,.cls-3,.cls-4{stroke-linecap:round;stroke-linejoin:round;}.cls-15,.cls-16,.cls-17,.cls-3,.cls-4,.cls-9{stroke-width:2px;}.cls-5{clip-path:url(#clip-path);}.cls-6{fill:#5db3f4;}.cls-8{stroke:#fff;stroke-width:9px;}.cls-10{clip-path:url(#clip-path-2);}.cls-11{fill:#c0e7ff;}.cls-13,.cls-17{fill:#302b5f;}.cls-14{clip-path:url(#clip-path-3);}.cls-16{fill:#fbe5bd;}</style><clipPath id="clip-path"><path class="cls-1" d="M20.88,143.1A51.58,51.58,0,0,1,7.64,112.25c-.51-8.91,2-13.21,1.62-27.85C9,73.61,7.46,72,7.12,64.56c-.23-5-1.25-27.17,13.76-43.29,14-15,33.17-15.53,39.46-15.34,4.66.15,22.54,1,36.16,15.34,1,1.1,14.49,15.7,14.18,34.57-.16,10-1.61,10.38-1.68,26.35-.06,17,2.73,19.67,1.68,29.67-.17,1.67-2.21,19-13.92,31.24C77.78,162.83,39.31,162.83,20.88,143.1Z"/></clipPath><clipPath id="clip-path-2"><circle class="cls-1" cx="25" cy="47.15" r="23"/></clipPath><clipPath id="clip-path-3"><circle class="cls-1" cx="94.27" cy="47.15" r="23"/></clipPath></defs><title>Fichier 9</title><g id="Calque_2" data-name="Calque 2"><g id="golang_i_o" data-name="golang i/o"><path class="cls-2" d="M109.14,88.75c-.09-1.93-.15-4.09-.14-6.56a127.29,127.29,0,0,1,1.16-18.41A23,23,0,0,0,99.38,24.72c-1.49-1.95-2.61-3.16-2.88-3.45-1-1-2-2-3-2.91,3.92-2.1,7.27-7,5.82-11.16a8.29,8.29,0,0,0-8.81-5.08C86.57,2.9,84.13,7.6,84,11.87A55.41,55.41,0,0,0,60.34,5.93,56.78,56.78,0,0,0,34,11.49c-.26-4.17-2.66-8.61-6.47-9.37A8.29,8.29,0,0,0,18.76,7.2c-1.4,4,1.66,8.69,5.38,10.92q-1.66,1.45-3.26,3.15a46.7,46.7,0,0,0-3.42,4.15A23,23,0,0,0,7,61.49c0,1.32.07,2.37.1,3.07C7.46,72,9,73.61,9.26,84.4c0,1.38.05,2.66.05,3.86-4.1,1.94-7.67,4.55-5.83,7.35,1,1.59,3,2,5.3,1.84-.6,5.53-1.46,9.28-1.14,14.8A51.58,51.58,0,0,0,20.88,143.1,39.25,39.25,0,0,0,25,146.87c-2.19,8.37-1.51,15.29,2.15,17.76a4.9,4.9,0,0,0,3.8.84c2.83-.8,4.63-5.4,4.79-12.15a59.94,59.94,0,0,0,47-.47c.09,7,1.89,11.8,4.79,12.62a4.92,4.92,0,0,0,3.81-.84c3.74-2.53,4.36-9.71,2-18.33a43.83,43.83,0,0,0,3.47-3.2c11.71-12.19,13.75-29.57,13.92-31.24.62-5.86-.09-9.2-.76-14.38A4.69,4.69,0,0,0,114,95.61C115.66,93,112.79,90.62,109.14,88.75Z"/><path class="cls-3" d="M99.3,7.2c2,5.68-5.09,12.88-10.23,12.16a5.88,5.88,0,0,1-3.7-2.27c-3.19-4.32-.61-13.82,5.12-15A8.29,8.29,0,0,1,99.3,7.2Z"/><path class="cls-4" d="M88.62,14.5l1.5-2.28a7.48,7.48,0,0,1,2.07-1.32,8.34,8.34,0,0,1,1.71-.51"/><path class="cls-4" d="M90.15,8a5.75,5.75,0,0,1,.37,1.79,5.84,5.84,0,0,1-.4,2.46"/><path class="cls-3" d="M18.76,7.2c-2,5.68,5.09,12.88,10.23,12.16a5.88,5.88,0,0,0,3.7-2.27c3.19-4.32.61-13.82-5.12-15A8.29,8.29,0,0,0,18.76,7.2Z"/><path class="cls-4" d="M29.44,14.5l-1.5-2.28a7.48,7.48,0,0,0-2.07-1.32,8.34,8.34,0,0,0-1.71-.51"/><path class="cls-4" d="M27.91,8a5.75,5.75,0,0,0-.37,1.79,5.84,5.84,0,0,0,.4,2.46"/><path class="cls-3" d="M92.58,143.9c3.19,9.67,2.81,18-1.27,20.73a4.92,4.92,0,0,1-3.81.84c-3.46-1-5.37-7.61-4.65-16.92Z"/><path class="cls-3" d="M25.83,143.9c-3.19,9.67-2.82,18,1.27,20.73a4.9,4.9,0,0,0,3.8.84c3.46-1,5.37-7.61,4.66-16.92Z"/><g class="cls-5"><path class="cls-6" d="M20.88,143.1A51.58,51.58,0,0,1,7.64,112.25c-.51-8.91,2-13.21,1.62-27.85C9,73.61,7.46,72,7.12,64.56c-.23-5-1.25-27.17,13.76-43.29,14-15,33.17-15.53,39.46-15.34,4.66.15,22.54,1,36.16,15.34,1,1.1,14.49,15.7,14.18,34.57-.16,10-1.61,10.38-1.68,26.35-.06,17,2.73,19.67,1.68,29.67-.17,1.67-2.21,19-13.92,31.24C77.78,162.83,39.31,162.83,20.88,143.1Z"/><path class="cls-7" d="M84.49,121.72c11.72-12.19,13.75-29.57,13.92-31.24,1-10-1.74-12.65-1.67-29.67.06-16,1.51-16.39,1.67-26.35a42.6,42.6,0,0,0-1.94-13.22C82.86,6.89,65,6.08,60.34,5.93c-6.29-.19-25.51.37-39.46,15.34-15,16.12-14,38.28-13.76,43.29C7.46,72,9,73.61,9.26,84.4,9.68,99,7.13,103.34,7.64,112.25a46.48,46.48,0,0,0,1.81,10.31C28.18,141.43,65.79,141.16,84.49,121.72Z"/><path class="cls-8" d="M20.88,143.1A51.58,51.58,0,0,1,7.64,112.25c-.51-8.91,2-13.21,1.62-27.85C9,73.61,7.46,72,7.12,64.56c-.23-5-1.25-27.17,13.76-43.29,14-15,33.17-15.53,39.46-15.34,4.66.15,22.54,1,36.16,15.34,1,1.1,14.49,15.7,14.18,34.57-.16,10-1.61,10.38-1.68,26.35-.06,17,2.73,19.67,1.68,29.67-.17,1.67-2.21,19-13.92,31.24C77.78,162.83,39.31,162.83,20.88,143.1Z"/></g><path class="cls-9" d="M20.88,143.1A51.58,51.58,0,0,1,7.64,112.25c-.51-8.91,2-13.21,1.62-27.85C9,73.61,7.46,72,7.12,64.56c-.23-5-1.25-27.17,13.76-43.29,14-15,33.17-15.53,39.46-15.34,4.66.15,22.54,1,36.16,15.34,1,1.1,14.49,15.7,14.18,34.57-.16,10-1.61,10.38-1.68,26.35-.06,17,2.73,19.67,1.68,29.67-.17,1.67-2.21,19-13.92,31.24C77.78,162.83,39.31,162.83,20.88,143.1Z"/><path class="cls-3" d="M94.76,92.27s15.48,9,19.22,3.34S99.11,85,99.11,85"/><path class="cls-3" d="M22.7,92.27s-15.49,9-19.22,3.34S18.34,85,18.34,85"/><g class="cls-10"><circle class="cls-11" cx="25" cy="47.15" r="23"/><path class="cls-12" d="M2,47.15a22.92,22.92,0,0,0,2,9.3A21.46,21.46,0,1,0,34.3,26.11,23,23,0,0,0,2,47.15Z"/></g><circle class="cls-9" cx="25" cy="47.15" r="23"/><circle class="cls-13" cx="25" cy="47.15" r="6.49"/><g class="cls-14"><circle class="cls-11" cx="94.27" cy="47.15" r="23"/><path class="cls-12" d="M71.27,47.15a22.92,22.92,0,0,0,2,9.3,21.46,21.46,0,1,0,30.34-30.34,23,23,0,0,0-32.3,21Z"/></g><circle class="cls-9" cx="94.27" cy="47.15" r="23"/><circle class="cls-13" cx="94.27" cy="47.15" r="6.49"/><rect class="cls-15" x="54.19" y="65.43" width="11.69" height="13.78" rx="5.03"/><path class="cls-16" d="M49.78,68.43c-1-2.6,4.19-9,10.19-8.91s10.84,6.45,9.8,9C69,70.42,64.92,70.42,60,70.42S50.55,70.43,49.78,68.43Z"/><path class="cls-17" d="M65.28,59c.47,1.77-2.29,4.76-5.31,4.76s-5.78-3-5.31-4.76S58.39,56.9,60,56.9,64.83,57.32,65.28,59Z"/><ellipse class="cls-12" cx="46.96" cy="21.55" rx="6.86" ry="5.56"/><ellipse class="cls-12" cx="56.2" cy="16.37" rx="2.39" ry="1.93"/></g></g></svg>